STARTFONT 2.1
COMMENT  
COMMENT  WARNING:  This bdf file was generated from a pcf file using
COMMENT  pcftobdf.  The resulting font is subject to the same copyright,
COMMENT  license, and trademark restrictions as the original font.  The
COMMENT  authors and distributors of fstobdf disclaim all liability for
COMMENT  misuse of the program or its output.
COMMENT  
FONT --Kapl-Screen-R-Normal--11-110-72-72-M--iso8859-1
SIZE 11 72 72
FONTBOUNDINGBOX 8 11 0 -3

STARTPROPERTIES 20
FONTNAME_REGISTRY ""
FAMILY_NAME "Kapl"
FOUNDRY ""
WEIGHT_NAME "Screen"
SLANT "R"
SETWIDTH_NAME "Normal"
ADD_STYLE_NAME ""
PIXEL_SIZE 11
POINT_SIZE 110
RESOLUTION_X 72
RESOLUTION_Y 72
SPACING "M"
AVERAGE_WIDTH 80
CHARSET_REGISTRY "ISO8859"
CHARSET_ENCODING "1"
CHARSET_COLLECTIONS "ASCII ISO8859-1"
FULL_NAME "Kapl"
DEFAULT_CHAR 0
FONT_ASCENT 8
FONT_DESCENT 3
ENDPROPERTIES

CHARS 174
STARTCHAR <unknown>
ENCODING 16
SWIDTH 42 0
DWIDTH 8 0
BBX 8 11 0 -3
BITMAP
00
00
00
00
1f
1f
18
18
18
18
18
ENDCHAR
STARTCHAR <unknown>
ENCODING 17
SWIDTH 42 0
DWIDTH 8 0
BBX 8 11 0 -3
BITMAP
00
00
00
00
ff
ff
18
18
18
18
18
ENDCHAR
STARTCHAR <unknown>
ENCODING 18
SWIDTH 42 0
DWIDTH 8 0
BBX 8 11 0 -3
BITMAP
00
00
00
00
f8
f8
18
18
18
18
18
ENDCHAR
STARTCHAR <unknown>
ENCODING 19
SWIDTH 42 0
DWIDTH 8 0
BBX 8 11 0 -3
BITMAP
18
18
18
18
1f
1f
18
18
18
18
18
ENDCHAR
STARTCHAR <unknown>
ENCODING 20
SWIDTH 42 0
DWIDTH 8 0
BBX 8 11 0 -3
BITMAP
18
18
18
18
ff
ff
18
18
18
18
18
ENDCHAR
STARTCHAR <unknown>
ENCODING 21
SWIDTH 42 0
DWIDTH 8 0
BBX 8 11 0 -3
BITMAP
18
18
18
18
f8
f8
18
18
18
18
18
ENDCHAR
STARTCHAR <unknown>
ENCODING 22
SWIDTH 42 0
DWIDTH 8 0
BBX 8 11 0 -3
BITMAP
18
18
18
18
1f
1f
00
00
00
00
00
ENDCHAR
STARTCHAR <unknown>
ENCODING 23
SWIDTH 42 0
DWIDTH 8 0
BBX 8 11 0 -3
BITMAP
18
18
18
18
ff
ff
00
00
00
00
00
ENDCHAR
STARTCHAR <unknown>
ENCODING 24
SWIDTH 42 0
DWIDTH 8 0
BBX 8 11 0 -3
BITMAP
18
18
18
18
f8
f8
00
00
00
00
00
ENDCHAR
STARTCHAR <unknown>
ENCODING 25
SWIDTH 42 0
DWIDTH 8 0
BBX 8 11 0 -3
BITMAP
18
18
18
18
18
18
18
18
18
18
18
ENDCHAR
STARTCHAR <unknown>
ENCODING 26
SWIDTH 42 0
DWIDTH 8 0
BBX 8 11 0 -3
BITMAP
00
00
00
00
ff
ff
00
00
00
00
00
ENDCHAR

STARTCHAR <unknown>
ENCODING 32
SWIDTH 42 0
DWIDTH 8 0
BBX 0 0 0 0
BITMAP
ENDCHAR

STARTCHAR <unknown>
ENCODING 33
SWIDTH 42 0
DWIDTH 8 0
BBX 8 11 0 -3
BITMAP
00
08
08
08
08
00
08
08
00
00
00
ENDCHAR
STARTCHAR <unknown>
ENCODING 34
SWIDTH 42 0
DWIDTH 8 0
BBX 8 11 0 -3
BITMAP
00
24
24
24
00
00
00
00
00
00
00
ENDCHAR
STARTCHAR <unknown>
ENCODING 35
SWIDTH 42 0
DWIDTH 8 0
BBX 8 11 0 -3
BITMAP
00
24
24
7e
24
7e
24
24
00
00
00
ENDCHAR
STARTCHAR <unknown>
ENCODING 36
SWIDTH 42 0
DWIDTH 8 0
BBX 8 11 0 -3
BITMAP
10
38
54
50
38
14
54
38
10
00
00
ENDCHAR
STARTCHAR <unknown>
ENCODING 37
SWIDTH 42 0
DWIDTH 8 0
BBX 8 11 0 -3
BITMAP
00
c2
c4
08
10
20
46
86
00
00
00
ENDCHAR
STARTCHAR <unknown>
ENCODING 38
SWIDTH 42 0
DWIDTH 8 0
BBX 8 11 0 -3
BITMAP
00
30
48
30
52
4a
46
3d
00
00
00
ENDCHAR
STARTCHAR <unknown>
ENCODING 39
SWIDTH 42 0
DWIDTH 8 0
BBX 8 11 0 -3
BITMAP
00
08
08
08
00
00
00
00
00
00
00
ENDCHAR
STARTCHAR <unknown>
ENCODING 40
SWIDTH 42 0
DWIDTH 8 0
BBX 8 11 0 -3
BITMAP
00
04
08
10
10
10
08
04
00
00
00
ENDCHAR
STARTCHAR <unknown>
ENCODING 41
SWIDTH 42 0
DWIDTH 8 0
BBX 8 11 0 -3
BITMAP
00
10
08
04
04
04
08
10
00
00
00
ENDCHAR
STARTCHAR <unknown>
ENCODING 42
SWIDTH 42 0
DWIDTH 8 0
BBX 8 11 0 -3
BITMAP
00
00
08
2a
1c
2a
08
00
00
00
00
ENDCHAR
STARTCHAR <unknown>
ENCODING 43
SWIDTH 42 0
DWIDTH 8 0
BBX 8 11 0 -3
BITMAP
00
00
08
08
7f
08
08
00
00
00
00
ENDCHAR
STARTCHAR <unknown>
ENCODING 44
SWIDTH 42 0
DWIDTH 8 0
BBX 8 11 0 -3
BITMAP
00
00
00
00
00
00
18
10
20
00
00
ENDCHAR
STARTCHAR <unknown>
ENCODING 45
SWIDTH 42 0
DWIDTH 8 0
BBX 8 11 0 -3
BITMAP
00
00
00
00
3e
00
00
00
00
00
00
ENDCHAR
STARTCHAR <unknown>
ENCODING 46
SWIDTH 42 0
DWIDTH 8 0
BBX 8 11 0 -3
BITMAP
00
00
00
00
00
00
08
08
00
00
00
ENDCHAR
STARTCHAR <unknown>
ENCODING 47
SWIDTH 42 0
DWIDTH 8 0
BBX 8 11 0 -3
BITMAP
00
01
02
04
08
10
20
40
00
00
00
ENDCHAR
STARTCHAR <unknown>
ENCODING 48
SWIDTH 42 0
DWIDTH 8 0
BBX 8 11 0 -3
BITMAP
00
18
24
42
42
42
24
18
00
00
00
ENDCHAR
STARTCHAR <unknown>
ENCODING 49
SWIDTH 42 0
DWIDTH 8 0
BBX 8 11 0 -3
BITMAP
00
08
18
28
08
08
08
3e
00
00
00
ENDCHAR
STARTCHAR <unknown>
ENCODING 50
SWIDTH 42 0
DWIDTH 8 0
BBX 8 11 0 -3
BITMAP
00
3c
42
02
0c
30
40
7e
00
00
00
ENDCHAR
STARTCHAR <unknown>
ENCODING 51
SWIDTH 42 0
DWIDTH 8 0
BBX 8 11 0 -3
BITMAP
00
7e
04
08
1c
02
42
3c
00
00
00
ENDCHAR
STARTCHAR <unknown>
ENCODING 52
SWIDTH 42 0
DWIDTH 8 0
BBX 8 11 0 -3
BITMAP
00
0c
14
24
44
7e
04
04
00
00
00
ENDCHAR
STARTCHAR <unknown>
ENCODING 53
SWIDTH 42 0
DWIDTH 8 0
BBX 8 11 0 -3
BITMAP
00
7e
40
5c
62
02
62
3c
00
00
00
ENDCHAR
STARTCHAR <unknown>
ENCODING 54
SWIDTH 42 0
DWIDTH 8 0
BBX 8 11 0 -3
BITMAP
00
3c
42
40
7c
42
42
3c
00
00
00
ENDCHAR
STARTCHAR <unknown>
ENCODING 55
SWIDTH 42 0
DWIDTH 8 0
BBX 8 11 0 -3
BITMAP
00
7e
02
04
08
10
10
10
00
00
00
ENDCHAR
STARTCHAR <unknown>
ENCODING 56
SWIDTH 42 0
DWIDTH 8 0
BBX 8 11 0 -3
BITMAP
00
3c
42
42
3c
42
42
3c
00
00
00
ENDCHAR
STARTCHAR <unknown>
ENCODING 57
SWIDTH 42 0
DWIDTH 8 0
BBX 8 11 0 -3
BITMAP
00
3c
42
42
3e
02
42
3c
00
00
00
ENDCHAR
STARTCHAR <unknown>
ENCODING 58
SWIDTH 42 0
DWIDTH 8 0
BBX 8 11 0 -3
BITMAP
00
00
18
18
00
18
18
00
00
00
00
ENDCHAR
STARTCHAR <unknown>
ENCODING 59
SWIDTH 42 0
DWIDTH 8 0
BBX 8 11 0 -3
BITMAP
00
00
00
18
18
00
18
10
20
00
00
ENDCHAR
STARTCHAR <unknown>
ENCODING 60
SWIDTH 42 0
DWIDTH 8 0
BBX 8 11 0 -3
BITMAP
00
00
06
18
60
18
06
00
00
00
00
ENDCHAR
STARTCHAR <unknown>
ENCODING 61
SWIDTH 42 0
DWIDTH 8 0
BBX 8 11 0 -3
BITMAP
00
00
00
7f
00
7f
00
00
00
00
00
ENDCHAR
STARTCHAR <unknown>
ENCODING 62
SWIDTH 42 0
DWIDTH 8 0
BBX 8 11 0 -3
BITMAP
00
00
60
18
06
18
60
00
00
00
00
ENDCHAR
STARTCHAR <unknown>
ENCODING 63
SWIDTH 42 0
DWIDTH 8 0
BBX 8 11 0 -3
BITMAP
00
1c
22
04
08
08
00
08
00
00
00
ENDCHAR
STARTCHAR <unknown>
ENCODING 64
SWIDTH 42 0
DWIDTH 8 0
BBX 8 11 0 -3
BITMAP
00
3c
42
5e
52
5e
40
3e
00
00
00
ENDCHAR
STARTCHAR <unknown>
ENCODING 65
SWIDTH 42 0
DWIDTH 8 0
BBX 8 11 0 -3
BITMAP
00
18
24
42
42
7e
42
42
00
00
00
ENDCHAR
STARTCHAR <unknown>
ENCODING 66
SWIDTH 42 0
DWIDTH 8 0
BBX 8 11 0 -3
BITMAP
00
7c
22
22
3c
22
22
7c
00
00
00
ENDCHAR
STARTCHAR <unknown>
ENCODING 67
SWIDTH 42 0
DWIDTH 8 0
BBX 8 11 0 -3
BITMAP
00
1c
22
40
40
40
22
1c
00
00
00
ENDCHAR
STARTCHAR <unknown>
ENCODING 68
SWIDTH 42 0
DWIDTH 8 0
BBX 8 11 0 -3
BITMAP
00
78
24
22
22
22
24
78
00
00
00
ENDCHAR
STARTCHAR <unknown>
ENCODING 69
SWIDTH 42 0
DWIDTH 8 0
BBX 8 11 0 -3
BITMAP
00
7e
40
40
78
40
40
7e
00
00
00
ENDCHAR
STARTCHAR <unknown>
ENCODING 70
SWIDTH 42 0
DWIDTH 8 0
BBX 8 11 0 -3
BITMAP
00
7e
40
40
78
40
40
40
00
00
00
ENDCHAR
STARTCHAR <unknown>
ENCODING 71
SWIDTH 42 0
DWIDTH 8 0
BBX 8 11 0 -3
BITMAP
00
1c
22
40
40
4e
22
1c
00
00
00
ENDCHAR
STARTCHAR <unknown>
ENCODING 72
SWIDTH 42 0
DWIDTH 8 0
BBX 8 11 0 -3
BITMAP
00
42
42
42
7e
42
42
42
00
00
00
ENDCHAR
STARTCHAR <unknown>
ENCODING 73
SWIDTH 42 0
DWIDTH 8 0
BBX 8 11 0 -3
BITMAP
00
1c
08
08
08
08
08
1c
00
00
00
ENDCHAR
STARTCHAR <unknown>
ENCODING 74
SWIDTH 42 0
DWIDTH 8 0
BBX 8 11 0 -3
BITMAP
00
0e
04
04
04
04
44
38
00
00
00
ENDCHAR
STARTCHAR <unknown>
ENCODING 75
SWIDTH 42 0
DWIDTH 8 0
BBX 8 11 0 -3
BITMAP
00
44
48
50
70
48
44
42
00
00
00
ENDCHAR
STARTCHAR <unknown>
ENCODING 76
SWIDTH 42 0
DWIDTH 8 0
BBX 8 11 0 -3
BITMAP
00
40
40
40
40
40
40
7c
00
00
00
ENDCHAR
STARTCHAR <unknown>
ENCODING 77
SWIDTH 42 0
DWIDTH 8 0
BBX 8 11 0 -3
BITMAP
00
42
66
5a
42
42
42
42
00
00
00
ENDCHAR
STARTCHAR <unknown>
ENCODING 78
SWIDTH 42 0
DWIDTH 8 0
BBX 8 11 0 -3
BITMAP
00
42
62
52
4a
46
42
42
00
00
00
ENDCHAR
STARTCHAR <unknown>
ENCODING 79
SWIDTH 42 0
DWIDTH 8 0
BBX 8 11 0 -3
BITMAP
00
3c
42
42
42
42
42
3c
00
00
00
ENDCHAR
STARTCHAR <unknown>
ENCODING 80
SWIDTH 42 0
DWIDTH 8 0
BBX 8 11 0 -3
BITMAP
00
7c
42
42
7c
40
40
40
00
00
00
ENDCHAR
STARTCHAR <unknown>
ENCODING 81
SWIDTH 42 0
DWIDTH 8 0
BBX 8 11 0 -3
BITMAP
00
3c
42
42
42
4a
44
32
00
00
00
ENDCHAR
STARTCHAR <unknown>
ENCODING 82
SWIDTH 42 0
DWIDTH 8 0
BBX 8 11 0 -3
BITMAP
00
7c
42
42
7c
48
44
42
00
00
00
ENDCHAR
STARTCHAR <unknown>
ENCODING 83
SWIDTH 42 0
DWIDTH 8 0
BBX 8 11 0 -3
BITMAP
00
3c
42
40
3c
02
42
3c
00
00
00
ENDCHAR
STARTCHAR <unknown>
ENCODING 84
SWIDTH 42 0
DWIDTH 8 0
BBX 8 11 0 -3
BITMAP
00
3e
08
08
08
08
08
08
00
00
00
ENDCHAR
STARTCHAR <unknown>
ENCODING 85
SWIDTH 42 0
DWIDTH 8 0
BBX 8 11 0 -3
BITMAP
00
42
42
42
42
42
42
3c
00
00
00
ENDCHAR
STARTCHAR <unknown>
ENCODING 86
SWIDTH 42 0
DWIDTH 8 0
BBX 8 11 0 -3
BITMAP
00
22
22
22
22
14
14
08
00
00
00
ENDCHAR
STARTCHAR <unknown>
ENCODING 87
SWIDTH 42 0
DWIDTH 8 0
BBX 8 11 0 -3
BITMAP
00
42
42
42
42
5a
66
42
00
00
00
ENDCHAR
STARTCHAR <unknown>
ENCODING 88
SWIDTH 42 0
DWIDTH 8 0
BBX 8 11 0 -3
BITMAP
00
42
42
24
18
24
42
42
00
00
00
ENDCHAR
STARTCHAR <unknown>
ENCODING 89
SWIDTH 42 0
DWIDTH 8 0
BBX 8 11 0 -3
BITMAP
00
44
44
28
10
10
10
10
00
00
00
ENDCHAR
STARTCHAR <unknown>
ENCODING 90
SWIDTH 42 0
DWIDTH 8 0
BBX 8 11 0 -3
BITMAP
00
7c
04
08
10
20
40
7c
00
00
00
ENDCHAR
STARTCHAR <unknown>
ENCODING 91
SWIDTH 42 0
DWIDTH 8 0
BBX 8 11 0 -3
BITMAP
1e
10
10
10
10
10
10
10
1e
00
00
ENDCHAR
STARTCHAR <unknown>
ENCODING 92
SWIDTH 42 0
DWIDTH 8 0
BBX 8 11 0 -3
BITMAP
00
40
20
10
08
04
02
01
00
00
00
ENDCHAR
STARTCHAR <unknown>
ENCODING 93
SWIDTH 42 0
DWIDTH 8 0
BBX 8 11 0 -3
BITMAP
3c
04
04
04
04
04
04
04
3c
00
00
ENDCHAR
STARTCHAR <unknown>
ENCODING 94
SWIDTH 42 0
DWIDTH 8 0
BBX 8 11 0 -3
BITMAP
00
00
00
08
1c
36
63
00
00
00
00
ENDCHAR
STARTCHAR <unknown>
ENCODING 95
SWIDTH 42 0
DWIDTH 8 0
BBX 8 11 0 -3
BITMAP
00
00
00
00
00
00
00
00
00
ff
00
ENDCHAR
STARTCHAR <unknown>
ENCODING 96
SWIDTH 42 0
DWIDTH 8 0
BBX 8 11 0 -3
BITMAP
20
10
08
04
00
00
00
00
00
00
00
ENDCHAR
STARTCHAR <unknown>
ENCODING 97
SWIDTH 42 0
DWIDTH 8 0
BBX 8 11 0 -3
BITMAP
00
00
30
48
38
48
48
34
00
00
40
ENDCHAR
STARTCHAR <unknown>
ENCODING 98
SWIDTH 42 0
DWIDTH 8 0
BBX 8 11 0 -3
BITMAP
40
40
58
64
44
44
64
58
00
00
00
ENDCHAR
STARTCHAR <unknown>
ENCODING 99
SWIDTH 42 0
DWIDTH 8 0
BBX 8 11 0 -3
BITMAP
00
00
38
44
40
40
44
38
00
00
00
ENDCHAR
STARTCHAR <unknown>
ENCODING 100
SWIDTH 42 0
DWIDTH 8 0
BBX 8 11 0 -3
BITMAP
04
04
34
4c
44
44
4c
34
00
00
00
ENDCHAR
STARTCHAR <unknown>
ENCODING 101
SWIDTH 42 0
DWIDTH 8 0
BBX 8 11 0 -3
BITMAP
00
00
38
44
78
40
44
38
00
00
00
ENDCHAR
STARTCHAR <unknown>
ENCODING 102
SWIDTH 42 0
DWIDTH 8 0
BBX 8 11 0 -3
BITMAP
1c
20
78
20
20
20
20
20
00
00
00
ENDCHAR
STARTCHAR <unknown>
ENCODING 103
SWIDTH 42 0
DWIDTH 8 0
BBX 8 11 0 -3
BITMAP
00
00
34
4c
44
44
4c
34
04
38
00
ENDCHAR
STARTCHAR <unknown>
ENCODING 104
SWIDTH 42 0
DWIDTH 8 0
BBX 8 11 0 -3
BITMAP
40
40
58
64
44
44
44
44
00
00
00
ENDCHAR
STARTCHAR <unknown>
ENCODING 105
SWIDTH 42 0
DWIDTH 8 0
BBX 8 11 0 -3
BITMAP
10
00
70
10
10
10
10
10
00
00
00
ENDCHAR
STARTCHAR <unknown>
ENCODING 106
SWIDTH 42 0
DWIDTH 8 0
BBX 8 11 0 -3
BITMAP
08
08
00
38
08
08
08
08
48
30
00
ENDCHAR
STARTCHAR <unknown>
ENCODING 107
SWIDTH 42 0
DWIDTH 8 0
BBX 8 11 0 -3
BITMAP
40
40
48
50
60
50
48
44
00
00
00
ENDCHAR
STARTCHAR <unknown>
ENCODING 108
SWIDTH 42 0
DWIDTH 8 0
BBX 8 11 0 -3
BITMAP
38
08
08
08
08
08
08
08
00
00
00
ENDCHAR
STARTCHAR <unknown>
ENCODING 109
SWIDTH 42 0
DWIDTH 8 0
BBX 8 11 0 -3
BITMAP
00
00
6c
54
54
54
54
54
00
00
00
ENDCHAR
STARTCHAR <unknown>
ENCODING 110
SWIDTH 42 0
DWIDTH 8 0
BBX 8 11 0 -3
BITMAP
00
00
58
64
44
44
44
44
00
00
00
ENDCHAR
STARTCHAR <unknown>
ENCODING 111
SWIDTH 42 0
DWIDTH 8 0
BBX 8 11 0 -3
BITMAP
00
00
38
44
44
44
44
38
00
00
00
ENDCHAR
STARTCHAR <unknown>
ENCODING 112
SWIDTH 42 0
DWIDTH 8 0
BBX 8 11 0 -3
BITMAP
00
00
58
64
44
44
64
58
40
40
00
ENDCHAR
STARTCHAR <unknown>
ENCODING 113
SWIDTH 42 0
DWIDTH 8 0
BBX 8 11 0 -3
BITMAP
00
00
34
4c
44
44
4c
34
04
04
00
ENDCHAR
STARTCHAR <unknown>
ENCODING 114
SWIDTH 42 0
DWIDTH 8 0
BBX 8 11 0 -3
BITMAP
00
00
58
64
40
40
40
40
00
00
00
ENDCHAR
STARTCHAR <unknown>
ENCODING 115
SWIDTH 42 0
DWIDTH 8 0
BBX 8 11 0 -3
BITMAP
00
00
38
44
30
08
44
38
00
00
00
ENDCHAR
STARTCHAR <unknown>
ENCODING 116
SWIDTH 42 0
DWIDTH 8 0
BBX 8 11 0 -3
BITMAP
00
20
78
20
20
20
24
18
00
00
00
ENDCHAR
STARTCHAR <unknown>
ENCODING 117
SWIDTH 42 0
DWIDTH 8 0
BBX 8 11 0 -3
BITMAP
00
00
44
44
44
44
4c
34
00
00
00
ENDCHAR
STARTCHAR <unknown>
ENCODING 118
SWIDTH 42 0
DWIDTH 8 0
BBX 8 11 0 -3
BITMAP
00
00
44
44
28
28
10
10
00
00
00
ENDCHAR
STARTCHAR <unknown>
ENCODING 119
SWIDTH 42 0
DWIDTH 8 0
BBX 8 11 0 -3
BITMAP
00
00
44
44
54
54
54
28
00
00
00
ENDCHAR
STARTCHAR <unknown>
ENCODING 120
SWIDTH 42 0
DWIDTH 8 0
BBX 8 11 0 -3
BITMAP
00
00
44
28
10
28
44
44
00
00
00
ENDCHAR
STARTCHAR <unknown>
ENCODING 121
SWIDTH 42 0
DWIDTH 8 0
BBX 8 11 0 -3
BITMAP
00
00
44
44
44
44
4c
34
04
38
00
ENDCHAR
STARTCHAR <unknown>
ENCODING 122
SWIDTH 42 0
DWIDTH 8 0
BBX 8 11 0 -3
BITMAP
00
00
78
08
10
20
40
78
00
00
00
ENDCHAR
STARTCHAR <unknown>
ENCODING 123
SWIDTH 42 0
DWIDTH 8 0
BBX 8 11 0 -3
BITMAP
0c
10
10
10
30
10
10
10
0c
00
00
ENDCHAR
STARTCHAR <unknown>
ENCODING 124
SWIDTH 42 0
DWIDTH 8 0
BBX 8 11 0 -3
BITMAP
00
08
08
08
08
08
08
08
00
00
00
ENDCHAR
STARTCHAR <unknown>
ENCODING 125
SWIDTH 42 0
DWIDTH 8 0
BBX 8 11 0 -3
BITMAP
30
08
08
08
0c
08
08
08
30
00
00
ENDCHAR
STARTCHAR <unknown>
ENCODING 126
SWIDTH 42 0
DWIDTH 8 0
BBX 8 11 0 -3
BITMAP
00
00
00
31
49
46
00
00
00
00
00
ENDCHAR
STARTCHAR <unknown>
ENCODING 160
SWIDTH 42 0
DWIDTH 8 0
BBX 8 11 0 -3
BITMAP
00
1c
22
33
6b
66
22
1c
00
00
33
ENDCHAR
STARTCHAR <unknown>
ENCODING 161
SWIDTH 42 0
DWIDTH 8 0
BBX 8 11 0 -3
BITMAP
33
33
00
00
00
00
00
00
00
00
3e
ENDCHAR
STARTCHAR <unknown>
ENCODING 162
SWIDTH 42 0
DWIDTH 8 0
BBX 8 11 0 -3
BITMAP
3e
00
00
00
00
00
00
00
00
00
00
ENDCHAR
STARTCHAR <unknown>
ENCODING 164
SWIDTH 42 0
DWIDTH 8 0
BBX 8 11 0 -3
BITMAP
00
00
06
18
60
18
06
00
7e
00
00
ENDCHAR
STARTCHAR <unknown>
ENCODING 166
SWIDTH 42 0
DWIDTH 8 0
BBX 8 11 0 -3
BITMAP
00
00
60
18
06
18
60
00
7e
00
00
ENDCHAR
STARTCHAR <unknown>
ENCODING 168
SWIDTH 42 0
DWIDTH 8 0
BBX 8 11 0 -3
BITMAP
00
03
06
7f
0c
7f
30
60
00
00
00
ENDCHAR
STARTCHAR <unknown>
ENCODING 169
SWIDTH 42 0
DWIDTH 8 0
BBX 8 11 0 -3
BITMAP
00
00
00
63
36
1c
08
00
00
00
00
ENDCHAR
STARTCHAR <unknown>
ENCODING 171
SWIDTH 42 0
DWIDTH 8 0
BBX 8 11 0 -3
BITMAP
00
00
63
36
1c
36
63
00
00
00
00
ENDCHAR
STARTCHAR <unknown>
ENCODING 172
SWIDTH 42 0
DWIDTH 8 0
BBX 8 11 0 -3
BITMAP
00
00
00
00
3c
00
18
08
10
00
00
ENDCHAR
STARTCHAR <unknown>
ENCODING 173
SWIDTH 42 0
DWIDTH 8 0
BBX 8 11 0 -3
BITMAP
7f
41
49
41
7f
41
49
41
7f
00
00
ENDCHAR
STARTCHAR <unknown>
ENCODING 174
SWIDTH 42 0
DWIDTH 8 0
BBX 8 11 0 -3
BITMAP
00
00
00
66
66
00
18
18
00
00
00
ENDCHAR
STARTCHAR <unknown>
ENCODING 175
SWIDTH 42 0
DWIDTH 8 0
BBX 8 11 0 -3
BITMAP
00
01
02
04
7f
10
20
40
00
00
31
ENDCHAR
STARTCHAR <unknown>
ENCODING 176
SWIDTH 42 0
DWIDTH 8 0
BBX 8 11 0 -3
BITMAP
31
49
46
00
08
1c
36
63
00
00
00
ENDCHAR
STARTCHAR <unknown>
ENCODING 177
SWIDTH 42 0
DWIDTH 8 0
BBX 8 11 0 -3
BITMAP
00
10
00
10
10
10
10
10
10
10
00
ENDCHAR
STARTCHAR <unknown>
ENCODING 179
SWIDTH 42 0
DWIDTH 8 0
BBX 8 11 0 -3
BITMAP
00
38
40
40
70
40
40
fe
00
00
00
ENDCHAR
STARTCHAR <unknown>
ENCODING 180
SWIDTH 42 0
DWIDTH 8 0
BBX 8 11 0 -3
BITMAP
00
44
44
28
7c
10
7c
10
00
00
00
ENDCHAR
STARTCHAR <unknown>
ENCODING 185
SWIDTH 42 0
DWIDTH 8 0
BBX 8 11 0 -3
BITMAP
31
49
46
00
63
36
1c
08
00
00
00
ENDCHAR
STARTCHAR <unknown>
ENCODING 187
SWIDTH 42 0
DWIDTH 8 0
BBX 8 11 0 -3
BITMAP
00
7f
41
5d
55
5d
41
7f
00
00
00
ENDCHAR
STARTCHAR <unknown>
ENCODING 188
SWIDTH 42 0
DWIDTH 8 0
BBX 8 11 0 -3
BITMAP
00
7f
61
51
49
45
43
7f
00
00
00
ENDCHAR
STARTCHAR <unknown>
ENCODING 189
SWIDTH 42 0
DWIDTH 8 0
BBX 8 11 0 -3
BITMAP
00
00
7f
00
7f
00
7f
00
00
00
00
ENDCHAR
STARTCHAR <unknown>
ENCODING 190
SWIDTH 42 0
DWIDTH 8 0
BBX 8 11 0 -3
BITMAP
00
3c
24
24
24
24
24
3c
00
00
00
ENDCHAR
STARTCHAR <unknown>
ENCODING 191
SWIDTH 42 0
DWIDTH 8 0
BBX 8 11 0 -3
BITMAP
00
10
00
10
20
40
40
44
38
00
00
ENDCHAR
STARTCHAR <unknown>
ENCODING 193
SWIDTH 42 0
DWIDTH 8 0
BBX 8 11 0 -3
BITMAP
00
00
3a
44
44
44
44
3a
00
00
00
ENDCHAR
STARTCHAR <unknown>
ENCODING 194
SWIDTH 42 0
DWIDTH 8 0
BBX 8 11 0 -3
BITMAP
00
00
08
08
08
08
7f
00
00
00
00
ENDCHAR
STARTCHAR <unknown>
ENCODING 195
SWIDTH 42 0
DWIDTH 8 0
BBX 8 11 0 -3
BITMAP
00
00
3c
42
42
42
42
42
00
00
00
ENDCHAR
STARTCHAR <unknown>
ENCODING 196
SWIDTH 42 0
DWIDTH 8 0
BBX 8 11 0 -3
BITMAP
00
20
20
20
20
20
20
3c
00
00
00
ENDCHAR
STARTCHAR <unknown>
ENCODING 197
SWIDTH 42 0
DWIDTH 8 0
BBX 8 11 0 -3
BITMAP
00
00
1e
20
3e
20
1e
00
00
00
00
ENDCHAR
STARTCHAR <unknown>
ENCODING 199
SWIDTH 42 0
DWIDTH 8 0
BBX 8 11 0 -3
BITMAP
00
7f
22
22
14
14
08
00
00
00
00
ENDCHAR
STARTCHAR <unknown>
ENCODING 200
SWIDTH 42 0
DWIDTH 8 0
BBX 8 11 0 -3
BITMAP
00
00
08
14
14
22
22
7f
00
00
00
ENDCHAR
STARTCHAR <unknown>
ENCODING 201
SWIDTH 42 0
DWIDTH 8 0
BBX 8 11 0 -3
BITMAP
00
00
30
10
10
10
10
18
00
00
00
ENDCHAR
STARTCHAR <unknown>
ENCODING 202
SWIDTH 42 0
DWIDTH 8 0
BBX 8 11 0 -3
BITMAP
00
00
00
0c
12
0c
00
00
00
00
00
ENDCHAR
STARTCHAR <unknown>
ENCODING 204
SWIDTH 42 0
DWIDTH 8 0
BBX 8 11 0 -3
BITMAP
00
7f
41
41
41
41
41
7f
00
00
00
ENDCHAR
STARTCHAR <unknown>
ENCODING 205
SWIDTH 42 0
DWIDTH 8 0
BBX 8 11 0 -3
BITMAP
00
08
08
08
08
08
08
08
00
00
00
ENDCHAR
STARTCHAR <unknown>
ENCODING 206
SWIDTH 42 0
DWIDTH 8 0
BBX 8 11 0 -3
BITMAP
00
00
7f
08
08
08
08
00
00
00
00
ENDCHAR
STARTCHAR <unknown>
ENCODING 207
SWIDTH 42 0
DWIDTH 8 0
BBX 8 11 0 -3
BITMAP
00
00
1e
21
21
21
1e
00
00
00
00
ENDCHAR
STARTCHAR <unknown>
ENCODING 210
SWIDTH 42 0
DWIDTH 8 0
BBX 8 11 0 -3
BITMAP
00
00
1c
22
22
3c
20
20
40
00
00
ENDCHAR
STARTCHAR <unknown>
ENCODING 211
SWIDTH 42 0
DWIDTH 8 0
BBX 8 11 0 -3
BITMAP
00
3c
20
20
20
20
20
20
00
00
00
ENDCHAR
STARTCHAR <unknown>
ENCODING 213
SWIDTH 42 0
DWIDTH 8 0
BBX 8 11 0 -3
BITMAP
00
08
08
08
08
2a
1c
08
00
00
00
ENDCHAR
STARTCHAR <unknown>
ENCODING 214
SWIDTH 42 0
DWIDTH 8 0
BBX 8 11 0 -3
BITMAP
00
00
42
42
42
42
3c
00
00
00
00
ENDCHAR
STARTCHAR <unknown>
ENCODING 215
SWIDTH 42 0
DWIDTH 8 0
BBX 8 11 0 -3
BITMAP
00
00
22
41
49
49
36
00
00
00
00
ENDCHAR
STARTCHAR <unknown>
ENCODING 216
SWIDTH 42 0
DWIDTH 8 0
BBX 8 11 0 -3
BITMAP
00
00
7c
02
02
02
7c
00
00
00
00
ENDCHAR
STARTCHAR <unknown>
ENCODING 217
SWIDTH 42 0
DWIDTH 8 0
BBX 8 11 0 -3
BITMAP
00
08
1c
2a
08
08
08
08
00
00
00
ENDCHAR
STARTCHAR <unknown>
ENCODING 218
SWIDTH 42 0
DWIDTH 8 0
BBX 8 11 0 -3
BITMAP
00
00
3e
40
40
40
3e
00
00
00
00
ENDCHAR
STARTCHAR <unknown>
ENCODING 219
SWIDTH 42 0
DWIDTH 8 0
BBX 8 11 0 -3
BITMAP
00
40
40
7c
40
40
00
00
00
00
00
ENDCHAR
STARTCHAR <unknown>
ENCODING 220
SWIDTH 42 0
DWIDTH 8 0
BBX 8 11 0 -3
BITMAP
00
40
20
10
7f
04
02
01
00
00
00
ENDCHAR
STARTCHAR <unknown>
ENCODING 221
SWIDTH 42 0
DWIDTH 8 0
BBX 8 11 0 -3
BITMAP
00
02
02
7e
02
02
00
00
00
00
00
ENDCHAR
STARTCHAR <unknown>
ENCODING 223
SWIDTH 42 0
DWIDTH 8 0
BBX 8 11 0 -3
BITMAP
00
00
18
00
7e
00
18
00
00
00
00
ENDCHAR
STARTCHAR <unknown>
ENCODING 224
SWIDTH 42 0
DWIDTH 8 0
BBX 8 11 0 -3
BITMAP
00
7f
08
08
08
08
08
7f
00
00
00
ENDCHAR
STARTCHAR <unknown>
ENCODING 225
SWIDTH 42 0
DWIDTH 8 0
BBX 8 11 0 -3
BITMAP
00
1c
22
22
7f
22
22
1c
00
00
08
ENDCHAR
STARTCHAR <unknown>
ENCODING 226
SWIDTH 42 0
DWIDTH 8 0
BBX 8 11 0 -3
BITMAP
08
08
1c
2a
2a
2a
1c
08
3e
00
00
ENDCHAR
STARTCHAR <unknown>
ENCODING 227
SWIDTH 42 0
DWIDTH 8 0
BBX 8 11 0 -3
BITMAP
00
00
1c
22
22
3e
22
22
00
00
00
ENDCHAR
STARTCHAR <unknown>
ENCODING 229
SWIDTH 42 0
DWIDTH 8 0
BBX 8 11 0 -3
BITMAP
00
00
1e
20
3e
20
1e
00
3e
00
00
ENDCHAR
STARTCHAR <unknown>
ENCODING 230
SWIDTH 42 0
DWIDTH 8 0
BBX 8 11 0 -3
BITMAP
31
49
46
00
7f
41
22
14
08
00
08
ENDCHAR
STARTCHAR <unknown>
ENCODING 231
SWIDTH 42 0
DWIDTH 8 0
BBX 8 11 0 -3
BITMAP
08
7f
49
2a
2a
1c
1c
08
08
00
08
ENDCHAR
STARTCHAR <unknown>
ENCODING 232
SWIDTH 42 0
DWIDTH 8 0
BBX 8 11 0 -3
BITMAP
08
08
1c
1c
2a
2a
49
7f
08
00
00
ENDCHAR
STARTCHAR <unknown>
ENCODING 233
SWIDTH 42 0
DWIDTH 8 0
BBX 8 11 0 -3
BITMAP
00
00
30
10
10
10
10
18
00
7e
00
ENDCHAR
STARTCHAR <unknown>
ENCODING 234
SWIDTH 42 0
DWIDTH 8 0
BBX 8 11 0 -3
BITMAP
24
00
18
24
24
18
00
00
00
00
00
ENDCHAR
STARTCHAR <unknown>
ENCODING 236
SWIDTH 42 0
DWIDTH 8 0
BBX 8 11 0 -3
BITMAP
00
7f
49
49
49
41
41
7f
00
00
00
ENDCHAR
STARTCHAR <unknown>
ENCODING 238
SWIDTH 42 0
DWIDTH 8 0
BBX 8 11 0 -3
BITMAP
00
3e
08
1c
2a
2a
2a
1c
08
08
42
ENDCHAR
STARTCHAR <unknown>
ENCODING 239
SWIDTH 42 0
DWIDTH 8 0
BBX 8 11 0 -3
BITMAP
42
00
3c
42
42
42
3c
00
00
00
00
ENDCHAR
STARTCHAR <unknown>
ENCODING 240
SWIDTH 42 0
DWIDTH 8 0
BBX 8 11 0 -3
BITMAP
00
1c
2a
55
49
55
22
1c
00
00
00
ENDCHAR
STARTCHAR <unknown>
ENCODING 244
SWIDTH 42 0
DWIDTH 8 0
BBX 8 11 0 -3
BITMAP
00
40
3e
51
49
45
3e
01
00
00
00
ENDCHAR
STARTCHAR <unknown>
ENCODING 247
SWIDTH 42 0
DWIDTH 8 0
BBX 8 11 0 -3
BITMAP
08
08
3e
49
49
49
3e
08
08
00
00
ENDCHAR
STARTCHAR <unknown>
ENCODING 250
SWIDTH 42 0
DWIDTH 8 0
BBX 8 11 0 -3
BITMAP
08
08
3e
48
48
3e
08
00
00
00
00
ENDCHAR
STARTCHAR <unknown>
ENCODING 251
SWIDTH 42 0
DWIDTH 8 0
BBX 8 11 0 -3
BITMAP
00
00
10
20
7e
20
10
00
00
00
00
ENDCHAR
STARTCHAR <unknown>
ENCODING 252
SWIDTH 42 0
DWIDTH 8 0
BBX 8 11 0 -3
BITMAP
00
00
08
14
14
22
22
7f
00
7f
00
ENDCHAR
STARTCHAR <unknown>
ENCODING 253
SWIDTH 42 0
DWIDTH 8 0
BBX 8 11 0 -3
BITMAP
00
00
08
04
7e
04
08
00
00
00
00
ENDCHAR
STARTCHAR <unknown>
ENCODING 254
SWIDTH 42 0
DWIDTH 8 0
BBX 8 11 0 -3
BITMAP
00
18
24
42
24
18
00
00
00
00
00
ENDCHAR
ENDFONT
